<svg version="1.1" xmlns="http://www.w3.org/2000/svg" style="display: block;" viewBox="82 82 1884 1884" width="1000" height="1000" preserveAspectRatio="none">
<path transform="translate(0,0)" fill="rgb(30,78,186)" d="M 968.138 0 L 1086.76 0 C 1101.98 3.38993 1103.32 24.0093 1108.16 36.9632 C 1115.75 57.3033 1120.93 83.0259 1130.69 102.23 C 1155.69 109.591 1169.53 108.555 1192.82 113.233 C 1244.33 123.574 1315.09 139.541 1362.23 161.422 C 1372.21 165.493 1382.91 169.083 1393.11 172.686 C 1403.25 174.157 1403.42 172.74 1411.85 167.246 C 1434.95 152.199 1466.93 95.9161 1497.89 114.992 C 1529.04 134.182 1556.3 148.957 1587.26 167.395 C 1599.48 174.379 1598.13 180.094 1597.16 193.429 C 1596.09 208.186 1575.89 273.621 1583.36 282.848 C 1589.28 290.157 1615.68 310.529 1624.09 317.489 C 1635.04 326.625 1645.8 335.983 1656.36 345.555 C 1698.95 384.868 1735.49 429.601 1772.12 474.171 C 1778.4 481.812 1857.39 460.496 1873 459.082 C 1889.01 468.977 1898.01 489.058 1906.72 505.103 C 1915.64 521.506 1935.92 549.954 1939.98 567.22 C 1947.88 600.821 1880.42 629.785 1879.36 661.608 C 1879.22 665.867 1888.45 688.358 1890.68 694.33 C 1895.68 707.808 1900.49 721.356 1905.1 734.969 C 1920.03 779.05 1931.01 823.545 1939.44 869.283 C 1940.88 877.104 1944.62 912.515 1947.48 916.361 C 1965.04 940.045 2041.51 936.222 2048 967.41 L 2048 1073.77 C 2046.48 1081.37 2047.05 1090.32 2039.14 1094.33 C 2011.9 1108.12 1976.43 1110.28 1949.78 1124.31 C 1944.85 1133.32 1940.2 1173.89 1937.62 1188.01 C 1934.29 1205.94 1930.56 1223.79 1926.44 1241.55 C 1919.12 1273.62 1905.56 1311.57 1895.61 1343.1 C 1888.14 1366.8 1882.61 1367.47 1879.67 1394.17 C 1894.23 1421.98 1933.85 1446.17 1941.1 1473.41 L 1940.85 1474.29 C 1934.8 1496.05 1890.63 1576.22 1874.4 1591.04 C 1839.87 1592.24 1813.4 1579.57 1780.14 1574.39 C 1772.99 1573.28 1766.72 1580.39 1762.37 1585.7 C 1716.02 1642.21 1665.68 1695.24 1609.23 1741.8 C 1599.4 1749.91 1589.05 1757.83 1579.56 1766.6 C 1581.23 1781.56 1585.88 1796.14 1589.04 1810.86 C 1591.42 1821.95 1601.86 1859.96 1596.04 1868.12 C 1589.07 1877.92 1517.66 1922.02 1501.96 1929.86 C 1495.03 1933.32 1487.43 1936.63 1479.7 1937.63 C 1477.41 1937.92 1474.32 1938.26 1472.07 1937.57 C 1455.74 1932.55 1426.09 1892.31 1409.68 1880.53 C 1403.1 1875.81 1396.46 1873.75 1388.47 1875.49 C 1373.76 1878.69 1359.37 1886.12 1345.43 1891.74 C 1334 1896.34 1322.2 1900.03 1310.47 1903.8 C 1251.74 1922.51 1191.51 1936.17 1130.45 1944.63 C 1125.18 1956.3 1120.32 1970.73 1116.33 1982.97 C 1109.72 2003.26 1105.39 2028.46 1092.66 2045.73 C 1050.84 2047.89 1002.33 2046.68 960.379 2045.4 C 946.468 2044.97 929.071 1961.01 920.348 1944.95 C 884.572 1937.36 846.551 1934.08 811.477 1924.35 C 781.274 1915.96 750.78 1907.01 721.117 1896.83 C 701.727 1890.17 677.995 1876.11 657.813 1874.38 C 652.338 1873.92 647.427 1875.85 642.866 1878.78 C 633.789 1884.61 626.713 1893.51 619.189 1901.14 C 609.547 1910.93 599.592 1920.89 589.295 1929.96 C 584.281 1934.39 580.106 1938.34 572.987 1937.73 C 566.125 1937.13 559.607 1934.49 553.477 1931.48 C 534.2 1922.03 515.927 1909.27 497.712 1897.91 C 486.026 1890.63 473.3 1883.99 462.049 1876.14 C 458.786 1873.87 455.47 1871 453.072 1867.82 C 446.461 1859.04 468.575 1784.59 471.27 1767.33 C 462.718 1759.02 451.358 1750.52 442.258 1742.68 C 420.316 1723.78 398.104 1705.67 377.559 1685.22 C 356.799 1664.9 336.88 1643.73 317.851 1621.77 C 307.505 1609.9 284.393 1579.01 274.156 1571.73 C 235.799 1577.54 214.845 1593.55 174.183 1591 C 159.636 1573.36 115.267 1499.15 110.193 1475.94 C 106.562 1459.33 155.683 1418.85 165.396 1404.11 C 170.206 1397.61 171.504 1392.11 169.22 1383.96 C 161.278 1355.61 147.348 1327.62 139.26 1299.33 C 124.093 1246.28 110.689 1192.39 104.027 1137.56 C 103.414 1132.51 101.275 1127.51 97.0324 1124.08 C 70.6595 1108.04 34.9286 1108.25 7.89105 1092.95 C -0.360335 1088.17 1.43809 1067.25 0.140608 1056.93 L 0 1055.88 L 0 987.456 C 2.05948 978.382 -0.922144 960.438 7.6893 955.491 C 34.2444 940.377 67.4256 936.673 94.8514 923.64 C 105.141 918.749 105.936 894.929 107.636 883.984 C 115.263 834.199 127.165 785.165 143.21 737.424 C 151.553 712.261 164.847 681.689 170.5 657.319 C 161.696 630.86 117.389 607.628 106.951 575.305 C 107.839 570.907 108.881 566.609 110.648 562.474 C 118.112 545.003 128.792 528.493 138.329 512.11 C 145.596 499.625 152.427 486.287 160.84 474.566 C 165.131 468.587 170.695 462.95 178.106 461.243 C 188.672 458.808 239.825 471.543 254.145 474.125 C 260.036 475.187 268.548 477.571 274.317 475.822 C 279.649 474.205 310.057 432.69 316.704 424.944 C 338.887 399.053 362.32 374.26 386.92 350.654 C 401.472 337.141 416.467 324.113 431.88 311.593 C 441.079 304.121 451.089 297.092 459.759 289.06 C 462.599 286.429 466.226 282.833 467.573 279.108 C 473.229 263.471 444.373 192.352 452.891 177.336 C 457.175 169.784 553.048 113.269 563.176 110.74 C 567.939 109.55 572.918 109.795 577.372 111.96 C 585.082 115.708 591.651 123.795 597.731 129.723 C 605.302 137.105 613.457 143.784 621.186 150.981 C 628.01 157.335 634.754 165.671 642.812 170.445 C 645.41 171.984 649.022 173.602 652.1 173.408 C 665.211 172.581 701.477 155.609 716.044 150.31 C 762.154 133.535 811.152 121.492 859.364 112.494 C 875.078 109.561 891.385 108.859 906.94 105.193 C 911.964 104.01 916.708 102.442 920.101 98.3564 C 933.122 82.681 941.639 25.7983 956.259 1.72746 C 960.572 1.25959 963.876 0.800821 968.138 0 z M 1032.49 1776.86 C 1447.89 1772.47 1781.36 1432.67 1777.93 1017.25 C 1774.5 601.842 1435.48 267.588 1020.06 270.051 C 603.273 272.522 267.679 612.908 271.118 1029.69 C 274.557 1446.46 615.721 1781.27 1032.49 1776.86 z"/>
<path transform="translate(0,0)" fill="rgb(18,62,167)" d="M 1362.23 161.422 C 1372.21 165.493 1382.91 169.083 1393.11 172.686 C 1382.85 178.574 1346.87 181.534 1362.23 161.422 z"/>
<path transform="translate(0,0)" fill="rgb(130,129,129)" d="M 775.859 540.484 C 837.855 539.158 902.894 541.487 965.351 540.654 C 1031.23 539.776 1098.21 541.204 1164.2 540.684 C 1172.86 540.616 1173.99 541.573 1180.91 547.215 C 1190.74 555.234 1200.01 565.484 1209.11 574.456 L 1262.58 627.09 L 1332.39 697.226 C 1343.68 708.372 1384.99 747.312 1393.13 759.824 C 1397.45 766.463 1396.11 811.956 1395.75 823.14 C 1387.64 835.463 1346.02 874.292 1334.04 884.549 C 1331.07 852.115 1334.59 817.493 1332.96 785.153 C 1302.73 783.491 1269.18 785.732 1238.67 784.772 C 1212.23 783.941 1185.88 775.854 1167.54 756.13 C 1140.45 727.007 1142.54 696.031 1142.28 659.447 C 1142.07 640.684 1142.2 621.919 1142.67 603.16 L 1141.11 603.062 C 1118.56 601.747 1086.05 602.794 1062.84 602.693 L 894.62 602.731 L 800.196 602.544 C 784.191 602.591 768.404 602.398 752.417 603.516 C 725.412 605.403 716.654 625.027 716.062 649.349 C 715.655 666.044 715.85 682.693 715.889 699.38 L 715.783 775.071 L 715.923 1045.19 C 715.465 1125.8 715.469 1206.42 715.935 1287.04 L 715.861 1367.73 C 715.908 1386.58 712.437 1416 725.311 1430.36 C 740.274 1447.06 763.905 1443.2 784.07 1443.48 C 797.081 1443.66 810.396 1443.44 823.44 1443.46 L 1005.6 1443.51 C 1074.82 1442.26 1147.88 1443.41 1217.53 1443.39 L 1270.26 1443.67 C 1287.28 1443.73 1308.48 1445.86 1321.62 1432.91 C 1335.93 1418.82 1332.71 1395.4 1332.88 1377.09 C 1333 1364.04 1332.32 1350.8 1332.6 1337.72 C 1333.93 1270.39 1331.94 1203.16 1334.09 1135.86 C 1345.97 1119.96 1379.65 1089.66 1394.99 1076.27 C 1395.07 1078.21 1395.13 1080.14 1395.19 1082.08 C 1396.07 1112.33 1395.42 1148.06 1395.37 1178.53 L 1395.38 1321.42 C 1395.28 1341.24 1395.31 1361.05 1395.45 1380.87 C 1395.55 1394.56 1396.46 1414.58 1394.15 1427.51 C 1390.75 1445.95 1382.13 1463.02 1369.3 1476.69 C 1335.97 1511.54 1299.77 1506.27 1256.1 1505.95 L 1174.01 1506.05 L 971 1506.31 C 923.322 1506.24 873.018 1505.36 825.534 1506.25 C 808.565 1506.42 791.595 1506.4 774.626 1506.18 C 738.615 1505.9 711.21 1507.24 682.821 1479.62 C 658.689 1456.14 653.167 1432.77 653.27 1400.54 C 653.46 1341.08 653.462 1281.45 653.489 1221.96 L 653.18 873.971 L 653.18 706.234 C 653.161 680.962 652.016 649.592 653.893 624.897 C 655.301 606.355 667.593 581.091 681.257 567.807 C 709.971 539.89 739.239 540.699 775.859 540.484 z"/>
<path transform="translate(0,0)" fill="rgb(130,129,129)" d="M 1467.97 809.869 C 1479.45 817.438 1528.28 867.637 1538.16 879.613 C 1525.51 894.304 1497.04 920.639 1482.22 935.305 C 1441.32 976.18 1399.97 1016.6 1358.16 1056.54 L 1265.39 1147.42 C 1243.22 1169.41 1217.13 1195.97 1193.92 1216.35 C 1188.71 1213.93 1131.33 1154.83 1123.46 1146.68 C 1129.01 1138.96 1150.67 1118.48 1158.36 1110.96 L 1238.56 1033.53 C 1314.21 959.966 1390.7 881.113 1467.97 809.869 z"/>
<path transform="translate(0,0)" fill="rgb(130,129,129)" d="M 1123.67 1081.84 C 1128.27 1081.75 1126.42 1081.03 1129.73 1083.12 L 1130.24 1085.86 C 1127.81 1093.96 1094.02 1135.81 1086.35 1146.4 C 1075.9 1160.78 1065.97 1175.53 1056.57 1190.62 C 1045.08 1209.12 1034.24 1228.02 1024.07 1247.29 C 1017.74 1259.37 1011.08 1274.11 1004.52 1285.38 C 994.33 1302.9 988.927 1338.3 963.256 1334.94 C 947.072 1332.82 935.814 1307.39 927.726 1294.96 C 918.793 1281.19 909.149 1267.9 898.834 1255.14 C 892.841 1248.72 869.331 1231.9 871.043 1224.15 C 874.062 1210.71 890.248 1197.19 904.473 1200.4 C 931.767 1206.54 948.988 1239.48 964.004 1260.82 C 983.288 1233.08 1001.37 1204.32 1023.26 1178.54 C 1052.91 1143.6 1086.2 1108.34 1123.67 1081.84 z"/>
<path transform="translate(0,0)" fill="rgb(130,129,129)" d="M 1551.1 742.283 C 1582.39 738.626 1606.81 764.938 1604.82 795.606 C 1603.18 820.959 1580 840.033 1561.92 855.945 L 1555.39 849.898 C 1543.54 838.1 1499.99 795.668 1493.57 785.4 C 1497.64 780.182 1503.39 774.209 1507.97 769.334 C 1522.64 753.729 1529.43 745.633 1551.1 742.283 z"/>
<path transform="translate(0,0)" fill="rgb(130,129,129)" d="M 1098.5 1169.26 C 1100.06 1169.97 1102.69 1171.31 1103.88 1172.58 C 1123.91 1193.98 1146.31 1214.01 1166.19 1235.37 C 1173.71 1243.45 1118.8 1263.68 1113.25 1265.99 C 1103.74 1270.21 1093.7 1274.6 1083.91 1278.01 C 1078.38 1279.94 1068.09 1283.1 1062.81 1280.05 C 1061.47 1279.28 1060.57 1277.14 1060.48 1276.16 C 1058.62 1256.22 1089.42 1184.36 1098.5 1169.26 z"/>
<path transform="translate(0,0)" fill="rgb(18,62,167)" d="M 1277.77 139.387 C 1278.81 138.76 1280.14 138.701 1281.48 138.453 L 1282.35 139.332 L 1277.05 141.397 C 1282.3 142.975 1287.96 141.103 1293.6 142.553 L 1289.25 142.988 C 1282.64 143.013 1268.82 143.344 1262.79 142.469 C 1266.65 140.695 1271.87 140.767 1276.84 139.609 L 1277.77 139.387 z"/>
<path transform="translate(0,0)" fill="rgb(18,62,167)" d="M 305.36 751.778 C 309.303 756.891 306.29 771.206 306.471 779.112 L 305.63 780.976 C 304.108 775.459 304.999 758.244 305.36 751.778 z"/>
<path transform="translate(0,0)" fill="rgb(18,62,167)" d="M 142.047 759.629 C 144.023 765.676 143.175 778.695 142.507 785.184 C 139.658 777.228 140.608 767.768 142.047 759.629 z"/>
<path transform="translate(0,0)" fill="rgb(18,62,167)" d="M 942.22 58.7102 C 943.241 66.0886 943.645 74.7455 942.55 82.1099 C 939.083 76.6922 940.901 64.6991 942.22 58.7102 z"/>
</svg>